<?xml version="1.0" encoding="UTF-8" standalone="no"?>
<!-- Created with Inkscape (http://www.inkscape.org/) -->

<svg
   xmlns:dc="http://purl.org/dc/elements/1.1/"
   xmlns:cc="http://creativecommons.org/ns#"
   xmlns:rdf="http://www.w3.org/1999/02/22-rdf-syntax-ns#"
   xmlns:svg="http://www.w3.org/2000/svg"
   xmlns="http://www.w3.org/2000/svg"
   xmlns:sodipodi="http://sodipodi.sourceforge.net/DTD/sodipodi-0.dtd"
   xmlns:inkscape="http://www.inkscape.org/namespaces/inkscape"
   version="1.0"
   width="800"
   height="989.81079"
   id="svg2"
   inkscape:version="0.48.4 r9939"
   sodipodi:docname="satelites.svg">
  <metadata
     id="metadata168">
    <rdf:RDF>
      <cc:Work
         rdf:about="">
        <dc:format>image/svg+xml</dc:format>
        <dc:type
           rdf:resource="http://purl.org/dc/dcmitype/StillImage" />
        <dc:title></dc:title>
      </cc:Work>
    </rdf:RDF>
  </metadata>
  <sodipodi:namedview
     pagecolor="#ffffff"
     bordercolor="#666666"
     borderopacity="1"
     objecttolerance="10"
     gridtolerance="10"
     guidetolerance="10"
     inkscape:pageopacity="0"
     inkscape:pageshadow="2"
     inkscape:window-width="1366"
     inkscape:window-height="743"
     id="namedview166"
     showgrid="false"
     inkscape:zoom="0.5"
     inkscape:cx="281.84504"
     inkscape:cy="483.97045"
     inkscape:window-x="0"
     inkscape:window-y="25"
     inkscape:window-maximized="1"
     inkscape:current-layer="svg2" />
  <defs
     id="defs4" />
  <rect
     style="fill:#000000;fill-opacity:1;stroke:none"
     id="rect4481"
     width="917.82458"
     height="1210.7708"
     x="-58.267094"
     y="-102.5407" />
  <g
     inkscape:groupmode="layer"
     id="layer1"
     inkscape:label="Layer"
     style="display:inline" />
  <g
     inkscape:groupmode="layer"
     id="layer3"
     inkscape:label="Layer#1"
     style="display:inline" />
  <g
     id="g4815"
     transform="translate(-10,-110)"
     inkscape:export-filename="/media/mbernardi/datos/Programas/liveWallpaper/iss.png"
     inkscape:export-xdpi="15.78"
     inkscape:export-ydpi="15.78">
    <path
       inkscape:connector-curvature="0"
       id="path4430"
       d="m 411.46199,872.35249 c -34.11395,26.13176 -68.29392,52.3138 -102.40625,78.5 4.34787,2.05796 10.55576,4.43135 13.8125,6.25 -3.10535,-0.19609 -5.97651,2.27711 -8.59375,2.46875 -4.32276,-2.443 -11.17476,-7.05578 -15.34375,-1.71875 -32.98319,25.28638 -66.00857,50.51801 -98.9375,75.87501 13.76978,6.1236 27.53596,12.167 41.3125,18.375 28.677,-21.8668 57.85146,-44.5501 86.21875,-65.90626 -3.51492,5.56258 -10.54863,7.87285 -15.1195,12.60048 -22.94913,17.58188 -45.9032,35.15738 -68.84925,52.74328 13.8082,6.0833 27.5665,12.1938 41.375,18.375 17.46791,-13.2117 34.85781,-27.0621 52.375,-39.875 3.46305,1.3635 8.92365,6.308 11.96875,1.875 1.17356,-4.265 -2.87007,-9.5475 1.84375,-12.8438 7.79755,-5.9418 15.90743,-11.9409 23.71875,-18.0312 0,12.9583 0,25.9167 0,38.875 5.90286,-0.016 10.81778,7.6125 16.71875,4.7812 3.28282,-4.1198 0.2309,-10.5876 1.28125,-15.4687 0,-8.7708 0,-17.5417 0,-26.3125 8.18038,3.9104 17.92042,6.9971 25.15625,11.4062 -1.42395,6.4977 3.80938,12.6127 10.375,12.5938 4.0879,1.4876 1.49119,7.6213 2.03125,10.8437 -0.1118,2.4569 -3.91495,-1.6658 -6.1875,-0.8437 -10.06623,1.3534 -15.80376,13.8187 -12.75,22.9062 3.19335,5.8368 10.6047,5.6195 15.90625,8.1875 -5.22636,5.4168 3.39557,13.7238 9.46875,11.0625 2.9084,-0.7021 3.82513,-4.6403 7.28125,-3.0312 5.81729,-0.9331 10.89472,4.4452 16.4375,5.875 4.24927,2.0053 9.19798,3.7762 12.9375,6.1562 -1.1005,4.2707 1.75264,8.5827 5.8125,9.5 3.34866,-0.01 2.57402,2.4865 5.59375,2.625 1.85106,0.694 7.80563,-0.6231 3.21875,1.8438 -15.60376,11.8453 -31.2036,23.821 -46.78125,35.8437 13.79317,6.0726 27.48409,12.2668 41.28125,18.375 22.54568,-17.2298 45.38992,-34.8731 67.75,-51.8437 -3.64448,5.5807 -10.74981,8.0013 -15.38175,12.7715 -16.88674,12.9569 -33.81951,25.8541 -50.6495,38.8847 13.75662,6.1196 27.50337,12.1725 41.28125,18.3438 22.69789,-17.2914 45.72738,-35.2528 68.21875,-52.125 -1.09754,5.2555 0.70009,11.9184 6.875,12.4375 3.91358,1.2807 8.63424,7.4806 12.84375,4.0312 2.19998,-5.3955 -0.59715,-11.8928 0.005,-17.6396 0.72066,-5.7086 -3.60201,-13.7458 3.29821,-16.6012 2.98981,-3.1256 10.77658,-6.7428 11.00221,-9.6365 -1.61818,-1.9503 -10.12241,-3.011 -7.55542,-4.5602 3.74431,-2.047 7.89782,-4.6551 11.68743,-1.0458 4.34584,2.7655 10.03397,1.5325 12.82484,-2.7502 32.13343,-24.6862 64.35048,-49.2635 96.45648,-73.9852 -27.22661,-12.2083 -54.48926,-23.93879 -81.71875,-36.15626 -32.10391,24.60446 -64.20838,49.20826 -96.3125,73.81246 -4.45085,-2.6334 -11.15642,-2.9485 -14.28125,-7.0312 1.35092,-6.6667 9.42347,-8.1857 13.48101,-12.8586 11.25914,-8.3444 22.43172,-17.0624 31.27903,-27.8466 5.77219,-4.45376 11.53431,-8.92065 17.27121,-13.41981 -8.30064,-3.43206 -17.17331,-7.16859 -25.03125,-10.65625 -0.68077,-4.26664 1.58835,-9.75061 -1.75,-13.1875 3.83153,-4.32815 8.59798,1.09652 12.96018,2.18717 8.00064,3.47957 15.90614,7.10275 23.94607,10.59408 5.94178,-5.06849 11.92833,-10.08635 17.90625,-15.125 -10.42393,-4.28679 -20.82486,-8.61261 -31.21875,-12.96875 5.43538,-2.95183 11.23879,-7.83901 9.75,-14.875 -0.17141,-10.51512 -14.06478,-18.24206 -22.32369,-10.54377 -6.3889,3.62989 -12.58226,8.13591 -17.42631,13.35627 -6.27692,-1.08491 -11.32215,-6.11766 -17.47376,-7.98158 -5.64153,-2.70085 -11.37022,-5.59259 -17.11999,-8.26842 -5.90072,5.22099 -11.7705,10.47719 -17.625,15.75 10.11274,4.82533 21.12176,9.6379 30.65625,14.5 -4.45371,2.59445 -7.33134,6.82825 -11.0625,10.25 -10.69965,-4.35578 -21.38465,-8.74743 -32.0625,-13.15625 -4.09656,2.40429 -7.40747,5.97387 -11.40625,8.5625 -0.51714,-10.69666 -0.97553,-21.396 -1.46875,-32.09375 -9.08322,8.93688 -23.06531,11.95382 -29.9375,23.1875 -5.95228,5.14259 -14.79636,6.64408 -18.875,13.84375 -6.37265,6.4693 -15.8225,10.10817 -21.0625,17.34375 -3.9637,-1.76857 -10.56961,-2.07176 -12.15625,3.03125 -1.05692,2.46966 1.54368,7.97405 -2.82419,4.79696 -2.91582,-2.68124 -17.46563,-3.88707 -9.75014,-7.91657 30.7116,-23.52351 61.42866,-47.03991 92.13683,-70.56789 -13.81623,-6.06595 -27.583,-12.15485 -41.375,-18.375 -32.09728,24.55083 -64.16187,49.20084 -96.28125,73.6875 -2.38762,-0.0492 -3.03726,-1.15293 -0.8125,-2.3125 31.71027,-23.66653 62.94911,-48.07865 94.40625,-72.125 -13.79414,-6.17844 -27.54802,-12.11639 -41.3125,-18.34375 l -0.79361,0.60843 -0.14389,0.11032 z m 90.75,101.6875 c 6.81562,3.34121 14.0102,5.89137 21.1875,8.59375 -7.57763,4.89662 -14.45096,12.00997 -21.5625,16.71875 -3.65982,-6.34677 -15.72347,-5.40324 -16.15625,2.81251 0.0591,1.7927 1.36864,3.41 -1.1875,1.9687 -5.77032,-2.3325 -13.1652,0.2481 -16.1875,5.6875 -2.91623,-1.6047 -7.75756,-1.921 -9.53125,-4.0937 5.38309,-3.743 12.35797,-5.4754 15.8125,-11.56251 4.31491,-4.42807 11.62486,-4.30833 15.28125,-9.71875 3.36077,-3.70848 6.80706,-7.95782 12,-8.8125 0.44039,0.003 -0.11524,-1.57443 0.34375,-1.59375 z m -44.40625,56.81251 c 4.03361,0.5037 1.1188,3.3798 -0.4375,3.4687 0.0704,-1.1883 0.17764,-2.3494 0.4375,-3.4687 z m 55.96875,24.2187 c 7.16045,4.0177 14.9961,6.4911 22.46875,10 -6.32158,4.4154 -12.7248,10.5981 -19,14 -3.83817,-3.7837 -10.28841,-3.3705 -14.65625,-1.4375 -2.16769,-2.8708 -6.1267,-5.3365 -8.625,-6.875 3.02327,-2.6445 4.88893,-6.6139 4.46875,-10.4062 5.22789,-0.01 13.62806,0.6939 15.34375,-5.2813 z m 64.375,28.0313 c 0.38938,2.2124 -6.96247,5.5716 -9.0625,7.9062 1.66428,-3.7249 6.25382,-5.2856 9.0625,-7.9062 z"
       style="fill:#ffffff;fill-opacity:1;stroke:none" />
    <path
       d="m 590.25663,1000.1097 -11.07142,12.1429 -33.21429,25.7142 -1.07143,5.3572 0.35714,4.6428 -35.4805,-3.6125 c 0,0 -0.21956,10.182 -0.20906,10.4696 0.0472,1.2919 -11.1795,2.2653 -11.85268,1.017 -0.46212,-0.857 -0.18787,-4.2758 -0.18787,-4.2758 l -2.72014,3.7628 -0.62116,7.996 c -1.02434,2.9514 -2.66818,4.6637 -4.64285,5.7143 l -0.35715,6.0715 c 4.53396,-2.1457 8.39837,3.7433 12.5,6.7857 l 3.21429,0 c 0.30181,-1.9836 1.63877,-1.3793 2.85714,-1.0715 4.15027,-1.9192 6.65754,0.6799 8.92857,3.9286 l -13.57142,12.5 c -1.16164,-3.2515 -3.49601,-3.3757 -6.07143,-2.8571 -3.47417,2.9427 -7.50138,2.0141 -11.42857,1.7857 -0.72838,-2.1672 -2.25914,-2.3284 -3.92858,-2.1429 -0.38649,-1.727 -1.93018,-1.1396 -3.21428,-1.0714 -3.01532,-4.4947 0.63073,-6.5672 2.5,-9.2857 l -3.57143,1.4286 -31.07143,-13.9286 c -1.8314,0.9621 -3.76736,1.4013 -6.07143,0 l -4.64285,3.9286 c -1.18083,1.5996 -6.44251,-0.8093 -5.71429,-4.2858 l 4.64286,-4.2857 -18.21429,-6.7857 c -5.59523,-4.3452 2.67857,-21.25 9.28572,-18.5714 l 9.28571,3.9286 -1.07143,-28.5715 20,4.6429 0,21.4286 20.71429,-17.1429 0.35714,-11.7857 c -4.4477,-2.5186 -2.62552,-3.8973 0.71429,-5 2.7225,-2.2888 5.61174,-1.7431 8.57142,0 0.48579,-0.7362 1.23642,0.1167 1.95049,0.7502 l 2.69237,1.0355 c 2.55732,-0.9323 4.67718,-2.1828 4.64286,-5 -4.66369,-0.5901 -5.5391,-6.09766 1.16071,-6.24999 4.14207,-0.16857 6.3329,4.39499 0.625,5.89289 0.81104,4.672 -0.96538,6.3586 -3.21428,7.5 l -0.71429,6.4285 6.78572,-5.3571 c 0.2416,-4.1597 2.57051,-4.1447 4.64285,-4.6429 l 0.35715,-5.3571 21.42857,-17.14286 c 2.02381,-2.06994 4.04762,-1.36296 6.07143,0.35714 l 1.78571,-0.71428 1.07143,-3.92857 -38.21429,-15 18.3725,-13.80876 32.39101,13.29131 11.30772,-11.09092 6.83737,-2.67686 -1.27921,-2.59147 -30.09896,-14.12915 11.10343,-9.93378 30.94104,15.03756 3.38066,1.50142 3.17239,-2.40815 5.66264,-6.07801 13.9466,-8.74829 c 14.73851,-1.85279 13.57086,15.82558 10.97008,16.1601 l -12.1032,9.14703 31.52476,13.12011 -10.96352,9.23214 -33.86122,-15.0003 -7.37551,5.76179 -2.5,-1.07143 c 1.59187,6.22645 -4.95865,8.9633 -9.64286,12.5 l 3.92857,1.78572 10.71429,-7.85715 0.71428,12.5 5.71429,1.78572 15,6.42857 z m -70.17857,11.25 10.53572,-8.2143 0.89285,-2.5 c 3.00781,10.0789 -4.21126,10.3958 -11.42857,10.7143 z m 24.10715,-11.78571 c 3.15418,-3.0363 6.11716,-6.26378 10.17857,-8.39285 l -4.82143,-2.14286 3.21428,-3.75 -2.5,-1.07143 -3.39285,3.92857 -3.39286,-0.89285 -2.5,3.92857 c 3.62451,2.15935 3.27853,5.31132 3.21429,8.39285 z"
       style="fill:#000000;fill-opacity:1;stroke:none"
       id="path3322"
       inkscape:connector-curvature="0"
       sodipodi:nodetypes="ccccccssccccccccccccccccccccccccccccccccccccccccccccccccccccccccccccccccccccccccccccccccccccc" />
    <path
       d="m 388.82806,995.46685 0,45.71425 -10,-4.2857 0,-47.14283 10,5.71428 z"
       style="fill:#000000;fill-opacity:1;stroke:none"
       id="path3292"
       inkscape:connector-curvature="0" />
    <path
       d="m 345.25663,1029.3954 -11.78571,-5.3571 -2.85715,-52.14288 13.21429,0.35715 1.42857,57.14283 z"
       style="fill:#000000;fill-opacity:1;stroke:none"
       id="path3294"
       inkscape:connector-curvature="0" />
    <path
       d="m 610.61378,1074.7526 c 3.92246,6.246 6.83215,18.4644 -10.71429,13.5714 L 335.61377,973.68113 c -44.14879,-13.84614 1.42139,-14.38981 8.92858,-11.7857 l 266.07143,112.85717 z"
       style="fill:#000000;fill-opacity:1;stroke:none"
       id="path3296"
       inkscape:connector-curvature="0" />
    <path
       d="m 608.71435,1104.4671 1.51523,30.8096 -12.12183,-6.0609 -1.01016,-19.698 11.61676,-5.0507 z"
       style="fill:#000000;fill-opacity:1;stroke:none"
       id="path3314"
       inkscape:connector-curvature="0" />
    <path
       d="m 565.27779,1087.7996 0,16.1624 -11.11168,4.5457 0,-16.1625 11.11168,-4.5456 z"
       style="fill:#000000;fill-opacity:1;stroke:none"
       id="path3316"
       inkscape:connector-curvature="0" />
    <path
       d="m 610.61378,1088.1454 c 5.47785,1.1227 12.71396,-4.046 18.39285,-6.4286 l -7.14285,-4.2857 c -3.42244,2.1418 -7.01958,5.3318 -10,4.8215 l -1.25,5.8928 z"
       style="fill:#000000;fill-opacity:1;stroke:none"
       id="path3318"
       inkscape:connector-curvature="0" />
    <path
       d="m 422.08867,983.50132 0.25253,36.87058 10.10153,4.0406 5.55584,-2.0203 1.01015,-3.5355 13.13198,-11.6168 c 3.29851,-4.4061 7.04226,-7.29411 10.35407,-8.33376 4.17637,-1.1822 5.66311,-3.94828 7.82868,-5.80837 2.58803,-2.79945 5.04961,-5.72535 9.59645,-6.566 4.61706,-1.30582 6.59768,-4.21462 8.5863,-6.81853 2.9119,-3.4703 6.26519,-5.61642 9.84898,-7.07106 l -1.76776,-39.39595 c -3.36063,2.36357 -6.60231,4.84609 -10.60661,6.56599 -3.0372,1.43563 -6.90591,4.04322 -10.6066,8.83883 -2.83931,4.50708 -6.95363,6.46415 -11.11168,8.33376 -4.39961,1.43971 -7.23591,5.2244 -10.35406,8.5863 -2.38668,2.97354 -6.15544,5.25603 -9.84899,7.57614 -3.03046,1.45598 -6.06091,4.36171 -9.09137,7.82869 l -4.04061,3.53553 c -3.19285,-1.56959 -6.30983,-2.7598 -8.83883,-1.01015 z"
       style="fill:#000000;fill-opacity:1;stroke:none"
       id="path3320"
       inkscape:connector-curvature="0" />
    <path
       style="fill:#000000;fill-opacity:1;stroke:none"
       d="m 347.49986,976.94814 15.27525,6.78852 -96.12802,73.66024 -15.27525,-6.7885 z"
       id="path4288"
       inkscape:connector-curvature="0"
       sodipodi:nodetypes="ccccc" />
    <path
       style="fill:#000000;fill-opacity:1;stroke:none"
       d="m 365.21345,984.84045 15.27525,6.78853 -96.12802,73.66022 -15.27525,-6.7885 z"
       id="path4288-1"
       inkscape:connector-curvature="0"
       sodipodi:nodetypes="ccccc" />
    <path
       style="fill:#000000;fill-opacity:1;stroke:none"
       d="m 303.86797,959.12635 15.27525,6.78852 -96.12802,73.66023 -15.27525,-6.7885 z"
       id="path4288-9"
       inkscape:connector-curvature="0"
       sodipodi:nodetypes="ccccc" />
    <path
       style="fill:#000000;fill-opacity:1;stroke:none"
       d="m 321.58156,967.01866 15.27525,6.78853 -96.12802,73.66021 -15.27525,-6.7885 z"
       id="path4288-1-0"
       inkscape:connector-curvature="0"
       sodipodi:nodetypes="ccccc" />
    <path
       style="fill:#000000;fill-opacity:1;stroke:none"
       d="m 412.96464,876.24805 15.27525,6.78852 -96.12802,73.66025 -15.27525,-6.78852 z"
       id="path4288-0"
       inkscape:connector-curvature="0"
       sodipodi:nodetypes="ccccc" />
    <path
       style="fill:#000000;fill-opacity:1;stroke:none"
       d="m 430.67823,884.14036 15.27525,6.78853 -96.12802,73.66025 -15.27525,-6.78853 z"
       id="path4288-1-1"
       inkscape:connector-curvature="0"
       sodipodi:nodetypes="ccccc" />
    <path
       style="fill:#000000;fill-opacity:1;stroke:none"
       d="m 456.97152,895.3641 15.27525,6.78852 -96.12802,73.66025 -15.27525,-6.78852 z"
       id="path4288-5"
       inkscape:connector-curvature="0"
       sodipodi:nodetypes="ccccc" />
    <path
       style="fill:#000000;fill-opacity:1;stroke:none"
       d="m 474.68511,903.25641 15.27525,6.78853 -96.12802,73.66025 -15.27525,-6.78853 z"
       id="path4288-1-9"
       inkscape:connector-curvature="0"
       sodipodi:nodetypes="ccccc" />
    <path
       style="fill:#000000;fill-opacity:1;stroke:none"
       d="m 660.12101,980.99828 15.27525,6.78852 -96.12802,73.6602 -15.27525,-6.7885 z"
       id="path4288-4"
       inkscape:connector-curvature="0"
       sodipodi:nodetypes="ccccc" />
    <path
       style="fill:#000000;fill-opacity:1;stroke:none"
       d="m 677.8346,988.89059 15.27525,6.78853 -96.12802,73.66028 -15.27525,-6.7886 z"
       id="path4288-1-11"
       inkscape:connector-curvature="0"
       sodipodi:nodetypes="ccccc" />
    <path
       style="fill:#000000;fill-opacity:1;stroke:none"
       d="m 700.52849,998.7924 15.27525,6.7885 -96.12802,73.6603 -15.27525,-6.7886 z"
       id="path4288-08"
       inkscape:connector-curvature="0"
       sodipodi:nodetypes="ccccc" />
    <path
       style="fill:#000000;fill-opacity:1;stroke:none"
       d="m 718.24208,1006.6847 15.27525,6.7885 -96.12802,73.6603 -15.27525,-6.7885 z"
       id="path4288-1-7"
       inkscape:connector-curvature="0"
       sodipodi:nodetypes="ccccc" />
    <path
       style="fill:#000000;fill-opacity:1;stroke:none"
       d="m 545.20067,1063.2961 15.27525,6.7885 -96.12802,73.6602 -15.27525,-6.7885 z"
       id="path4288-2"
       inkscape:connector-curvature="0"
       sodipodi:nodetypes="ccccc" />
    <path
       style="fill:#000000;fill-opacity:1;stroke:none"
       d="m 562.91426,1071.1884 15.27525,6.7885 -96.12802,73.6603 -15.27525,-6.7886 z"
       id="path4288-1-18"
       inkscape:connector-curvature="0"
       sodipodi:nodetypes="ccccc" />
    <path
       style="fill:#000000;fill-opacity:1;stroke:none"
       d="m 588.20313,1081.4609 15.27525,6.7885 -96.12802,73.6603 -15.27525,-6.7886 z"
       id="path4288-40"
       inkscape:connector-curvature="0"
       sodipodi:nodetypes="ccccc" />
    <path
       style="fill:#000000;fill-opacity:1;stroke:none"
       d="m 605.91672,1089.3532 15.27525,6.7885 -96.12802,73.6603 -15.27525,-6.7885 z"
       id="path4288-1-8"
       inkscape:connector-curvature="0"
       sodipodi:nodetypes="ccccc" />
  </g>
  <g
     id="g4842"
     transform="translate(4,180)"
     inkscape:export-filename="/media/mbernardi/datos/Programas/liveWallpaper/hubble.png"
     inkscape:export-xdpi="15.78"
     inkscape:export-ydpi="15.78">
    <path
       inkscape:connector-curvature="0"
       id="path4506"
       d="m 437.38774,174.7249 c -7.27775,0.76294 -8.08182,9.41401 -11.59375,14.21875 -1.70329,3.10274 -1.76611,7.87299 1.875,9.625 0.52514,10.0353 0.3577,20.4325 -0.0937,30.25 -5.89534,-3.16025 -12.77011,-4.12027 -18.82686,-6.99403 -8.83074,-2.92476 -18.06697,-4.78352 -27.39189,-3.84972 -16.62975,22.57683 -33.41632,45.431 -50.58446,67.55106 -5.32822,3.30965 -11.73129,8.52955 -10.47804,15.66769 -7.37102,9.94283 -13.81909,21.27813 -22.375,29.90625 -10.27637,5.21291 -11.97042,17.45011 -17.96875,26.125 -8.52926,12.09296 -18.30479,23.23087 -27.15625,35.125 13.04196,13.45285 31.20799,19.44556 48.25,26.15625 13.95172,16.26078 35.26635,29.31633 57.4375,26.375 9.13576,-1.55476 16.76172,-7.62795 22.32623,-14.75084 14.95206,-10.2496 30.31395,-19.97185 44.70502,-30.96791 -0.62438,8.21681 0.61066,16.80573 -0.4375,24.84375 -3.28865,2.83606 -8.58781,-2.05746 -10.3125,2.90625 -5.46342,8.73611 0.80948,20.0919 8.53125,24.84375 -4.3167,4.91148 -10.82534,14.7149 -1.9133,18.95391 16.92584,10.2622 35.16982,19.34048 54.7258,23.26484 5.74844,2.36121 9.43498,-3.27403 11.59375,-7.84375 20.22732,-36.30986 38.37209,-73.7274 59.55206,-109.45468 4.30059,-4.48166 8.83088,-10.23177 7.60419,-16.82657 15.05081,-29.13629 30.04661,-58.38014 45.59375,-87.03125 2.8223,-5.89955 -0.42004,-13.96711 -7.53125,-14.40625 -12.62205,-3.8594 -26.08885,-6.18726 -38.90625,-7.875 6.3998,-5.68409 14.32456,-12.89488 12.09375,-22.46875 -2.38731,-10.00104 -14.38195,-12.29335 -23.02187,-13.79289 -9.26814,-2.01045 -19.36793,-1.61664 -27.32188,4.10539 -6.70425,4.76519 -13.47606,10.02269 -18.59375,16.375 -0.98949,2.44796 0.44876,5.11487 2.3125,6.6875 -19.39903,10.69369 -38.65404,21.32526 -58.40625,31.25 -0.61158,-20.62991 0.16086,-42.89158 -0.21875,-62.625 10.40491,2.19461 18.41143,-10.60282 14.28125,-19.78125 -2.20487,-7.87379 -8.73261,-16.17698 -17.75,-15.5625 z m -9.84375,72.625 c -0.85167,9.53665 1.66513,19.62946 -1.21875,28.84375 -3.80844,6.29924 -12.26144,2.34787 -18.21875,3.21875 -5.15288,1.04813 1.86072,-5.02569 2.15625,-7.03125 5.63315,-8.81139 11.69115,-17.42503 17.34375,-26.1875 l -0.054,0.99854 -0.009,0.15771 z m 52.21875,103.5625 c 3.51021,0.61467 0.16565,5.08364 -0.90219,6.45719 -13.91445,23.32583 -27.86082,47.46576 -41.78531,70.26156 0.081,-11.48622 1.00703,-23.42354 0.46875,-35.03125 3.8497,-8.21716 13.33272,-11.23269 19.14637,-17.76138 6.67315,-5.73402 16.12009,-10.82982 18.13488,-19.86362 -0.52345,-2.74704 2.58948,-4.31416 4.9375,-4.0625 z"
       style="fill:#ffffff;fill-opacity:1" />
    <path
       style="fill:#030000;fill-opacity:1"
       d="m 478.23653,490.49663 c -18.975,-3.97851 -37.0135,-12.38578 -53.6462,-22.54687 -11.051,-3.92493 5.6243,-13.18599 3.0786,-18.81481 -7.633,-2.9427 -14.4702,-13.22094 -9.1209,-20.55629 9.9918,1.83554 12.1928,-3.20761 10.7722,-12.7389 -0.2437,-8.38109 0.5667,-16.88906 0.2592,-24.96719 -16.4805,13.44286 -35.8084,25.39397 -53.33755,37.58538 -7.4545,12.56804 -23.8944,15.63731 -37.0712,10.91576 -13.9114,-3.97938 -26.6284,-13.13422 -35.7896,-24.20998 -15.6413,-6.52455 -32.4676,-11.30702 -45.1727,-23.27885 9.6605,-12.9455 20.7592,-25.14588 29.2846,-38.81524 1.9792,-7.72464 6.882,-16.63573 14.3756,-19.3696 7.6708,-10.29104 15.6361,-21.15392 22.5985,-31.57808 -2.0714,-10.64783 9.0728,-10.4208 12.649,-17.67944 14.9209,-21.04552 31.3196,-41.62604 46.38055,-62.59197 13.0019,-0.87954 25.1961,4.05434 37.212,8.56557 11.8738,2.43429 6.6693,10.18034 1.1207,16.97325 -7.7348,12.62364 -16.7898,24.40551 -23.5176,37.32708 8.5628,-2.66985 17.875,-0.1063 26.5479,-1.61036 5.749,-3.49551 7.7355,-9.70265 6.5657,-17.97877 0.1798,-12.76105 0.2616,-26.031 0.3542,-39.07083 -0.186,-10.0766 0.8639,-20.3725 -0.3627,-30.44123 -7.5719,-1.03927 2.1375,-8.38014 2.5124,-14.65724 6.5606,-6.78722 15.2495,2.95789 17.1045,9.5855 3.0911,7.46298 -1.032,17.05799 -9.9962,15.60983 -8.1804,-5.5508 -2.3594,12.14715 -4.1949,17.13375 0.086,18.4982 -0.2176,36.86114 0.3552,55.26404 6.2137,-1.46751 15.5953,-7.77702 22.8719,-11.13241 15.2164,-8.28295 30.9168,-16.38955 46.1107,-25.19442 -3.3307,-5.28781 -9.791,-3.93121 -0.5795,-10.27262 8.5721,-8.29601 19.4295,-17.59213 32.105,-14.2229 7.9182,1.14225 17.5666,1.74987 23.1357,7.97124 5.7536,9.48705 -4.7422,17.64887 -11.3641,23.16327 -5.032,-1.03948 -18.2152,-1.13922 -7.5847,4.75601 16.1338,0.80125 31.9695,3.63355 47.6958,8.03407 11.8033,1.61491 8.2632,9.08627 3.0792,16.60157 -13.8549,27.04856 -28.1715,53.76101 -41.9965,80.96986 1.7959,8.01869 -4.197,11.47165 -8.097,16.75396 -12.1226,21.19387 -22.7938,42.40898 -34.4958,63.67017 -9.0184,16.82193 -17.7197,34.16253 -27.544,50.5962 -0.7255,0.59789 -1.5135,0.28197 -2.298,0.25149 z m -40.9008,-54.58485 c 15.2242,-26.94588 31.565,-53.50555 47.0988,-80.10983 5.5039,-11.85987 -15.3025,-11.77706 -13.5233,0.0951 -5.1829,8.32036 -15.2058,13.94237 -22.5624,20.79683 -7.0791,6.30801 -17.6068,10.24051 -14.5255,21.45979 0.076,10.84045 -1.0583,22.79224 -0.6079,32.58336 3.3121,-0.85823 2.0776,6.01815 4.1203,5.17472 z"
       id="path4498"
       inkscape:connector-curvature="0" />
  </g>
  <g
     id="g4846"
     transform="translate(-208,32)"
     inkscape:export-filename="/media/mbernardi/datos/Programas/liveWallpaper/tiangong1.png"
     inkscape:export-xdpi="15.782959"
     inkscape:export-ydpi="15.782959">
    <path
       inkscape:connector-curvature="0"
       id="path4790"
       d="m 499.59375,31.8125 c -8.51023,2.112078 -15.09802,9.425075 -23.84375,10.53125 -4.65637,4.98999 -9.34331,9.674124 -15.6875,12.59375 -4.3614,2.083816 -11.22073,7.413513 -6.65625,12.375 5.7162,5.752127 13.70016,8.524903 20.25953,13.1777 16.19985,9.370403 31.74648,20.59616 48.86547,27.8223 8.22191,0.79269 14.37841,7.63598 21.73619,10.95993 20.30703,12.04724 40.50064,24.28419 60.79506,36.35257 0.62836,4.29917 -3.66997,1.48708 -6,2.625 -10.51686,2.04582 -22.08518,9.2544 -22.71875,21.09375 -0.87647,9.41797 0.70791,20.71268 9.8125,25.6875 7.36437,4.76907 16.95547,7.89763 25.28125,3.5 6.53622,-3.19793 14.24106,-7.06468 16.4375,-14.4375 8.81649,2.28824 17.84561,-0.58034 24.75,-6.09375 3.87247,-3.48931 6.85214,2.63578 10.41948,3.57785 22.71395,13.93437 46.25661,26.77378 68.14302,41.8909 7.40347,9.02194 19.15301,12.64125 28.53125,19.28125 14.28726,8.04959 27.86943,17.92938 42.90625,24.21875 8.70442,0.1075 14.56129,-7.85822 22.75,-9.78125 5.95132,-1.99636 8.69981,-8.57162 14.90494,-10.45524 4.63841,-2.93497 12.00581,-5.7652 12.34506,-11.85726 -1.94747,-6.74985 -10.35252,-7.90465 -15.125,-12.125 -18.31047,-10.94619 -36.03402,-22.97454 -55.03125,-32.59375 -9.03326,-0.41402 -15.96115,-7.77131 -23.90625,-11.34375 -13.84724,-8.42087 -29.44967,-17.12589 -41.75,-26.1875 15.38071,-9.93964 32.55219,-17.26906 46.59375,-29.03125 8.60635,-11.46108 4.17683,-27.19908 -1.375,-38.96875 -5.61515,-11.093199 -14.55958,-20.774142 -25.9375,-26.21875 0.58024,-5.843798 0.24124,-14.706836 -7.1875,-15.75 -6.77927,1.595595 -5.19105,9.871763 -5.0625,14.75 -2.98874,1.137986 -3.16241,-4.229623 -5.0625,-5.6875 -3.13303,-4.480409 -0.0414,-10.755586 -4.625,-14.65625 -4.93594,-6.611941 -16.7492,-4.243021 -18.09375,4.0625 -1.20862,7.194611 5.14219,12.012651 9.8125,16.1875 1.29013,2.140468 7.24246,6.370615 2.46875,7.90625 -17.46697,11.329402 -36.20573,20.187979 -53.25,32 -4.01422,3.67335 -5.64636,9.4277 -7.53125,14.09375 C 622.7555,107.64192 598.70466,92.478395 574.75,77.5 570.55704,71.283787 563.56961,67.939448 557.40506,63.746382 540.18131,53.350114 523.03893,42.459135 505.46875,32.84375 c -1.86256,-0.68043 -3.86977,-1.238439 -5.875,-1.03125 z"
       style="fill:#ffffff;fill-opacity:1" />
    <path
       inkscape:connector-curvature="0"
       id="path4788"
       d="m 800.62472,272.24441 c -2.17671,-0.97125 -54.02902,-31.80905 -61.32333,-36.47044 -2.48214,-1.58621 -4.30699,-3.35519 -4.30699,-4.17516 0,-0.97034 -4.89201,-4.36794 -15.38211,-10.68322 -8.46016,-5.09324 -26.08806,-15.72741 -39.1731,-23.63143 -13.08505,-7.90411 -24.23753,-14.56337 -24.78332,-14.79841 -0.5458,-0.23504 -4.23751,1.54461 -8.2038,3.95472 -6.47443,3.93421 -7.67259,4.37664 -11.72354,4.32873 -2.48165,-0.0295 -5.85037,-0.3471 -7.48604,-0.70602 -2.9532,-0.6481 -2.9838,-0.62668 -4.39559,3.07011 -1.82124,4.7687 -3.48062,6.26482 -11.47653,10.34736 -8.75943,4.47229 -11.90124,4.47213 -20.54533,-8.2e-4 -9.45044,-4.89053 -11.23648,-7.80419 -11.53018,-18.81015 -0.30543,-11.44412 2.64121,-15.9124 13.55192,-20.55008 4.77477,-2.02954 6.89406,-2.50889 9.69565,-2.19312 3.89426,0.4389 4.20576,0.11534 5.46537,-5.67817 l 0.56081,-2.57944 -27.32371,-16.35467 c -58.20254,-34.83719 -55.4345,-33.26778 -57.6811,-32.70391 -1.70008,0.42668 -5.41073,-1.46255 -19.91175,-10.137829 -9.80222,-5.86423 -23.88165,-14.27226 -31.28762,-18.68452 -7.40601,-4.41225 -14.52817,-8.89888 -15.82705,-9.97027 -2.22384,-1.83436 -2.28201,-2.03594 -0.99729,-3.45554 0.75037,-0.82915 4.89257,-3.64221 9.20488,-6.25126 4.98112,-3.01366 8.39948,-5.69105 9.37318,-7.34123 1.58859,-2.69252 3.50376,-3.91731 4.83688,-3.09336 0.42397,0.262 4.21461,-1.53983 8.42365,-4.00407 4.20912,-2.46425 8.91014,-4.93509 10.44687,-5.49076 3.42763,-1.23947 3.38259,-1.26232 33.23971,16.86201 37.64589,22.8524 37.62276,22.83718 37.62276,24.79805 0,1.46501 4.42496,4.45525 24.61137,16.63169 13.53625,8.165049 31.00844,18.715839 38.82706,23.446179 8.61497,5.21211 14.88635,8.50068 15.9179,8.34694 1.32909,-0.19812 2.01272,-1.39218 3.11998,-5.4492 2.15653,-7.90185 5.10333,-11.36728 13.60763,-16.0026 4.00607,-2.18355 13.37513,-7.579679 20.82007,-11.991399 7.44494,-4.41172 16.95108,-9.99259 21.12476,-12.40192 4.17368,-2.40934 7.58851,-4.86713 7.58851,-5.46177 0,-2.33387 -6.89315,-11.89369 -9.98205,-13.84361 -3.77399,-2.38241 -6.06457,-6.58497 -5.28406,-9.69472 0.75705,-3.0164 5.4104,-5.21736 8.27303,-3.91305 3.15781,1.43879 5.50491,5.75725 4.91842,9.04932 -0.40083,2.24982 0.11847,3.74152 2.91145,8.36408 4.44054,7.34935 4.68272,7.52217 8.63473,6.16089 l 3.24435,-1.11752 -0.28459,-6.12938 c -0.30673,-6.6048 0.60823,-8.40918 3.02958,-5.97479 1.00735,1.01278 1.35691,2.86799 1.35691,7.2011 l 0,5.83686 4.24087,2.19857 c 15.53486,8.05364 27.61822,27.554999 27.71634,44.731219 0.0312,5.46446 -0.31215,7.26257 -2.02092,10.58502 -1.90623,3.70623 -3.02999,4.58493 -15.18711,11.87589 -7.22073,4.33045 -18.56928,10.99431 -25.2191,14.80858 -6.64975,3.81427 -12.08821,7.32139 -12.08542,7.7936 0,0.47221 7.4785,5.40564 16.61268,10.96322 9.13418,5.55749 17.16134,10.44359 17.83816,10.8578 23.95982,14.66517 33.20927,19.69008 35.37006,19.21549 2.43752,-0.53538 0.50946,-1.63493 51.37559,29.30123 7.932,4.82416 15.3529,9.52042 16.49093,10.43613 2.00607,1.61417 2.02404,1.71475 0.58944,3.30005 -0.8139,0.8993 -5.14574,3.72895 -9.62633,6.28813 -4.65918,2.66114 -9.04771,5.83445 -10.25154,7.41278 -1.23746,1.6223 -2.83096,2.75975 -3.86652,2.75975 -0.96879,0 -4.33981,1.50983 -7.49113,3.35511 -6.97519,4.0845 -11.89583,6.50831 -13.06199,6.43398 -0.47927,-0.0303 -1.79434,-0.46728 -2.92236,-0.97075 z"
       style="fill:#000000;fill-opacity:1" />
  </g>
</svg>
